<?xml version="1.0" standalone="no"?>
<!DOCTYPE svg PUBLIC "-//W3C//DTD SVG 20010904//EN"
 "http://www.w3.org/TR/2001/REC-SVG-20010904/DTD/svg10.dtd">
<svg version="1.0" xmlns="http://www.w3.org/2000/svg"
 width="7730.000000pt" height="7730.000000pt" viewBox="0 0 7730.000000 7730.000000"
 preserveAspectRatio="xMidYMid meet">

<g transform="translate(0.000000,7730.000000) scale(0.100000,-0.100000)"
fill="#000000" stroke="none">
<path d="M45736 52664 c-50 -49 -46 -26 -476 -2824 -231 -1502 -420 -2743
-420 -2759 0 -60 31 -84 50 -38 5 12 84 443 174 957 91 514 269 1520 395 2235
126 715 239 1354 251 1420 11 66 32 181 45 255 93 519 97 546 93 627 -2 64 -8
88 -24 110 -25 33 -65 41 -88 17z"/>
<path d="M42988 52608 c-47 -66 -41 -132 66 -733 52 -297 174 -988 271 -1535
97 -547 268 -1517 380 -2155 113 -638 210 -1170 215 -1183 17 -38 44 -24 48
23 2 22 -110 771 -247 1665 -138 894 -325 2111 -416 2705 -91 594 -172 1103
-180 1132 -18 63 -58 113 -90 113 -15 0 -32 -12 -47 -32z"/>
<path d="M29585 47535 c-211 -54 -437 -202 -542 -356 -75 -109 -123 -250 -123
-361 0 -74 -20 -125 -53 -133 -14 -4 -60 -1 -104 6 -111 17 -311 14 -407 -6
-164 -34 -293 -99 -408 -205 -221 -202 -368 -620 -314 -888 22 -107 50 -170
116 -257 74 -98 69 -148 -19 -176 -234 -76 -359 -304 -321 -589 20 -158 101
-275 233 -339 113 -55 164 -64 372 -66 l190 -2 165 -164 c268 -266 503 -443
768 -577 198 -101 413 -171 525 -172 44 0 87 35 87 72 0 27 -148 477 -163 496
-5 6 -21 12 -36 12 -51 0 -217 51 -301 93 -114 56 -217 156 -249 240 -30 81
-29 187 2 247 37 73 62 85 175 85 112 -1 166 -17 329 -95 110 -54 128 -55 173
-10 33 33 25 71 -37 172 -78 128 -166 315 -203 428 -17 52 -38 108 -46 123
-14 25 -14 30 0 52 53 81 180 129 606 230 829 196 1255 371 1537 632 103 95
184 228 220 363 26 96 23 342 -5 472 -75 344 -238 592 -440 668 -48 18 -73 21
-157 18 -88 -3 -109 -8 -169 -36 -124 -58 -233 -148 -386 -319 -83 -92 -104
-95 -164 -25 -173 201 -338 318 -514 363 -88 22 -258 25 -337 4z"/>
<path d="M45725 47103 c-374 -404 -870 -600 -1469 -580 -429 14 -794 141
-1130 394 l-86 65 -55 -22 c-131 -53 -280 -168 -305 -236 -14 -36 -12 -81 4
-113 21 -40 91 -99 148 -126 l49 -23 -48 -28 c-26 -15 -69 -49 -94 -74 -111
-111 -83 -229 75 -311 l63 -33 -56 -36 c-62 -40 -127 -107 -141 -146 -36 -93
23 -181 161 -243 l40 -18 -49 -32 c-73 -46 -149 -131 -157 -174 -9 -46 1 -89
28 -123 47 -60 174 -123 338 -169 l56 -16 6 -152 c10 -239 53 -366 175 -518
184 -228 487 -373 892 -426 114 -14 350 -7 465 15 431 83 803 338 961 657 68
139 76 186 72 406 l-3 188 75 27 c172 60 348 163 403 236 34 45 48 99 36 142
-12 43 -81 108 -153 143 l-54 26 56 37 c73 47 138 118 150 164 22 78 -26 152
-133 207 -36 19 -65 36 -65 39 1 3 30 25 67 50 103 69 152 152 132 223 -12 43
-80 109 -150 144 l-57 29 55 34 c69 43 139 121 152 166 19 69 -19 136 -109
194 -46 29 -226 100 -253 100 -7 -1 -48 -40 -92 -87z m163 -455 c-2 -17 -24
-29 -103 -61 -219 -86 -577 -173 -918 -222 -334 -48 -506 -59 -902 -59 -381
-1 -496 6 -727 45 -139 23 -150 27 -146 48 4 20 24 19 148 -2 409 -71 1059
-66 1620 14 367 52 756 148 942 233 69 32 90 33 86 4z m10 -441 c4 -20 -60
-50 -231 -107 -299 -100 -716 -182 -1102 -215 -38 -4 -83 -8 -100 -11 -131
-17 -590 -24 -825 -11 -262 14 -564 61 -682 106 -26 10 -37 34 -20 44 4 3 55
-8 115 -23 113 -30 341 -66 504 -80 101 -8 798 -6 843 3 14 3 66 8 115 12 457
34 1045 161 1315 284 50 23 63 22 68 -2z m2 -446 c0 -15 -22 -28 -102 -59
-714 -278 -2004 -378 -2720 -211 -75 18 -88 24 -88 41 0 23 -2 24 160 -11 711
-151 2034 -37 2648 229 80 35 102 37 102 11z m-340 -569 c0 -21 -61 -41 -290
-91 -408 -89 -849 -134 -1325 -134 -291 0 -456 10 -667 41 -106 16 -113 19
-116 41 -3 21 -1 23 25 18 15 -4 100 -17 188 -29 145 -21 198 -23 575 -23 326
0 452 4 590 18 327 33 650 89 885 151 113 30 135 32 135 8z"/>
<path d="M58455 46724 c-237 -39 -450 -178 -618 -406 -69 -93 -128 -128 -218
-128 -32 0 -70 5 -86 11 -93 37 -144 30 -235 -34 -53 -37 -66 -42 -128 -45
-102 -6 -162 25 -233 121 -105 142 -265 262 -394 296 -183 49 -393 23 -599
-74 -219 -102 -356 -238 -455 -449 -127 -272 -132 -635 -13 -978 105 -303 235
-441 461 -492 314 -70 800 86 1200 385 181 136 264 164 483 164 102 0 170 -5
230 -18 117 -25 321 -94 367 -124 79 -51 76 -40 339 -969 l246 -869 -7 -86
c-19 -278 -141 -446 -350 -482 -56 -10 -97 -7 -288 16 -313 39 -505 50 -646
37 -239 -20 -369 -81 -415 -192 -32 -75 -22 -130 60 -350 208 -553 526 -1234
627 -1345 50 -54 108 -77 184 -71 47 4 93 21 243 93 533 254 1045 558 1347
800 108 86 138 136 137 225 0 36 -30 225 -66 420 -74 394 -152 859 -203 1194
-25 169 -42 246 -70 326 -73 210 -90 297 -90 475 0 156 1 162 29 223 19 42 47
79 82 111 57 52 181 120 259 142 67 19 218 17 274 -3 43 -16 43 -16 69 10 34
37 49 76 67 178 41 239 -8 427 -150 569 -87 88 -180 135 -340 175 -140 35
-195 65 -231 126 -41 69 -46 111 -29 216 42 257 -7 441 -155 588 -90 90 -197
148 -348 186 -95 25 -268 39 -337 28z"/>
<path d="M60859 41092 l-27 -7 104 -290 c57 -159 112 -314 121 -343 20 -61 36
-43 -148 -166 -366 -246 -753 -414 -1084 -471 -132 -23 -343 -23 -450 0 -150
32 -122 -16 -269 456 -71 228 -132 420 -136 427 -7 14 -159 -59 -285 -138
-196 -122 -392 -302 -488 -447 -102 -154 -100 -147 -266 -988 -232 -1174 -440
-2229 -566 -2865 -479 -2417 -606 -3066 -603 -3083 2 -10 365 -459 808 -998
647 -790 806 -978 812 -963 4 11 138 624 298 1364 159 740 294 1353 298 1362
4 11 293 -1090 781 -2975 425 -1645 783 -3015 796 -3043 27 -61 87 -125 146
-154 22 -12 42 -20 44 -18 1 2 86 748 188 1658 141 1257 183 1657 174 1663 -7
4 -57 34 -112 67 -55 32 -112 69 -127 82 l-26 23 98 455 c96 445 265 1236 710
3320 122 569 266 1244 321 1499 54 255 99 471 99 479 0 9 -54 119 -121 245
-90 171 -119 235 -115 252 7 26 36 40 65 30 11 -3 67 -97 150 -255 l132 -249
-386 -1808 c-213 -995 -438 -2049 -501 -2343 -63 -294 -166 -772 -227 -1061
l-113 -526 56 -36 c334 -214 887 -320 1582 -304 142 3 266 10 275 15 16 10
171 723 1194 5502 136 633 228 1042 237 1053 29 33 82 16 82 -27 0 -12 -162
-779 -361 -1706 -199 -927 -518 -2412 -708 -3300 l-346 -1615 -70 -8 c-39 -5
-71 -10 -72 -11 -1 -1 -52 -227 -112 -502 -60 -274 -130 -591 -155 -704 -25
-113 -97 -443 -161 -735 -64 -291 -167 -759 -229 -1040 -63 -280 -176 -795
-252 -1142 l-139 -633 -3798 0 -3798 0 -26 -26 c-22 -22 -25 -32 -20 -72 3
-31 12 -52 27 -64 21 -17 187 -18 3839 -18 l3818 0 21 -23 c22 -23 22 -28 22
-361 l0 -337 -25 -24 -24 -25 -3813 0 c-3435 0 -3816 -2 -3836 -16 -18 -12
-22 -25 -22 -69 0 -35 5 -59 16 -69 14 -15 -190 -16 -2246 -16 l-2262 0 32 37
c60 68 85 137 85 233 0 73 -4 93 -28 141 -32 67 -109 142 -175 172 l-47 22
-2247 5 c-1532 3 -2250 8 -2257 15 -6 6 -601 1262 -1321 2790 -721 1529 -1323
2800 -1337 2825 -14 25 -50 78 -80 118 -181 243 -434 401 -753 469 -81 17
-233 18 -3355 18 -2756 0 -3279 -2 -3325 -14 -257 -65 -426 -319 -381 -575 13
-74 2298 -5869 2350 -5959 61 -105 163 -207 271 -270 l45 -27 -3326 0 -3327 0
-7 363 -7 364 1252 2699 c1128 2432 1253 2705 1257 2760 16 179 -112 317 -293
317 -63 0 -79 -4 -135 -34 -44 -24 -73 -49 -94 -80 -17 -24 -466 -984 -999
-2134 -533 -1149 -973 -2094 -978 -2100 -5 -6 -6 135 -3 345 3 195 7 527 10
738 5 338 12 466 60 1095 30 392 54 721 54 732 -1 11 -13 -40 -29 -113 -15
-73 -29 -134 -31 -136 -2 -2 -67 -24 -144 -49 -426 -139 -970 -268 -1475 -351
-1131 -186 -2166 -174 -3058 35 -96 22 -176 38 -179 36 -12 -13 -104 -725
-148 -1143 -66 -647 -125 -1448 -151 -2071 l-7 -162 59 14 c897 208 842 197
949 193 130 -6 204 -32 360 -130 409 -255 1022 -642 1030 -650 7 -7 -397 -9
-1202 -6 -675 3 -1213 1 -1213 -3 0 -11 -329 -12 -513 -2 l-128 6 -99 165 -98
164 -214 123 c-725 415 -1350 859 -1893 1346 -187 167 -540 530 -681 699 -344
412 -557 751 -747 1185 -36 83 -151 346 -255 585 -473 1083 -687 1529 -929
1932 -172 287 -321 485 -513 681 -155 160 -248 234 -561 445 -304 205 -601
416 -765 544 -149 115 -182 131 -264 132 -88 1 -126 -18 -400 -201 -977 -652
-1950 -1560 -2783 -2598 -934 -1163 -1684 -2477 -2238 -3923 -323 -841 -576
-1727 -758 -2652 -79 -405 -114 -622 -100 -631 6 -4 30 -10 51 -13 46 -8 46 0
5 -136 -97 -326 -150 -773 -127 -1069 33 -434 195 -792 502 -1112 264 -275
627 -458 1017 -514 95 -14 1039 -59 3861 -185 2774 -124 3990 -181 4015 -189
131 -37 215 -126 261 -273 99 -322 180 -528 321 -818 l85 -175 -6 -455 c-6
-496 -21 -883 -51 -1385 -3 -44 -10 -156 -15 -250 -6 -93 -13 -199 -15 -235
-3 -36 -12 -162 -21 -280 -8 -118 -17 -237 -19 -265 -2 -27 -9 -108 -15 -180
-14 -182 -21 -254 -25 -300 -2 -22 -7 -71 -10 -110 -3 -38 -8 -92 -11 -120 -2
-27 -11 -126 -19 -220 -9 -93 -18 -188 -20 -210 -5 -47 -12 -126 -20 -210 -22
-236 32 -85 -721 -1995 -751 -1908 -715 -1806 -685 -1917 48 -177 280 -238
402 -106 39 41 50 66 224 509 l157 402 32 -19 c75 -44 403 -104 726 -133 539
-49 1659 -49 2725 -1 315 15 915 52 921 58 10 9 -38 79 -118 172 -429 497
-905 776 -1413 827 -142 14 -531 3 -1150 -34 l-384 -22 -7 -63 -6 -62 -53 -20
c-116 -43 -210 -56 -410 -55 -157 0 -208 4 -293 22 -87 19 -260 68 -270 77 -2
2 226 586 231 591 1 1 54 -11 117 -27 328 -83 676 -96 896 -33 46 13 52 18 62
52 63 215 343 1320 481 1902 126 525 381 1662 381 1695 0 3 62 -72 138 -167
76 -95 215 -266 309 -380 163 -197 172 -211 211 -310 22 -56 172 -436 332
-843 160 -407 361 -915 445 -1130 85 -214 278 -705 430 -1090 152 -385 378
-959 502 -1275 135 -343 239 -593 257 -620 64 -89 196 -122 292 -72 92 48 152
161 141 266 -3 35 -218 591 -687 1781 -375 952 -702 1782 -727 1845 -24 63
-47 119 -50 125 -7 14 41 -37 343 -361 440 -472 1387 -1442 1442 -1477 l22
-14 -21 -49 c-79 -183 -189 -525 -263 -822 -106 -422 -116 -504 -72 -597 29
-64 111 -139 174 -159 72 -24 609 -72 1007 -91 l140 -7 38 -39 c21 -21 42 -39
47 -39 25 0 157 57 269 116 308 162 687 427 1220 854 601 480 1306 1084 1780
1524 224 208 208 197 237 161 49 -61 55 -166 13 -219 -28 -36 -16 -34 135 15
150 49 197 79 222 144 20 52 23 29 -46 355 -101 481 -195 1028 -275 1610 -8
63 -17 129 -20 145 -2 17 -9 71 -15 120 -6 50 -13 104 -15 120 -8 56 -64 530
-70 590 -4 33 -13 114 -20 180 -8 66 -16 152 -20 190 -7 77 -31 330 -50 515
-2 25 -7 74 -10 110 -7 86 -15 175 -20 230 -3 25 -9 108 -15 185 -6 77 -12
160 -15 185 -2 25 -7 83 -10 130 -3 47 -8 110 -10 140 -11 126 -15 180 -20
270 -4 52 -8 113 -10 135 -2 22 -6 87 -10 145 -3 58 -10 168 -15 245 -5 77
-19 302 -30 500 -11 198 -22 401 -25 450 -3 50 -10 189 -15 310 -6 121 -12
265 -15 320 -8 154 -34 815 -45 1160 -9 284 -18 598 -36 1258 l-6 247 5910 0
5910 0 114 -97 c63 -54 222 -190 353 -303 132 -113 830 -709 1550 -1325 721
-615 1370 -1171 1444 -1234 73 -64 152 -132 174 -151 l41 -35 1095 3 c2856 7
4710 42 5261 97 260 27 325 38 595 104 605 147 916 426 991 890 17 109 19 372
4 500 -41 329 -200 761 -499 1358 -50 101 -91 185 -91 188 0 3 537 5 1194 5
l1194 0 35 -87 c19 -49 477 -1210 1017 -2581 l982 -2494 -800 -2031 c-441
-1118 -1013 -2570 -1272 -3227 -259 -657 -476 -1200 -483 -1206 -6 -7 -70 -44
-141 -84 -337 -187 -658 -413 -927 -653 -68 -60 -101 -97 -113 -126 -44 -112
14 -230 129 -259 86 -22 437 -54 810 -73 365 -19 1129 -5 1760 31 521 30 1148
84 1220 105 73 21 165 84 208 143 56 75 78 135 84 221 11 160 -83 1001 -115
1033 -5 5 -20 -9 -35 -31 -32 -48 -76 -83 -143 -112 -38 -18 -67 -22 -129 -22
-86 1 -252 31 -350 63 -153 51 -266 184 -290 343 -7 43 -9 46 -34 41 -14 -2
-89 -16 -166 -30 -324 -58 -685 -151 -963 -249 -73 -26 -135 -45 -137 -43 -3
2 225 587 506 1299 281 711 765 1940 1076 2729 311 789 568 1438 571 1442 4 4
74 -164 156 -373 l149 -379 -453 -1383 c-250 -760 -497 -1515 -550 -1678 l-97
-297 131 -80 c476 -294 898 -475 1137 -489 l95 -6 278 574 c154 316 313 645
355 733 l75 158 17 -38 c9 -22 330 -837 715 -1812 749 -1902 717 -1827 808
-1874 58 -31 146 -31 209 1 56 27 110 94 128 158 29 106 62 15 -785 2163 -433
1097 -788 2002 -788 2010 -1 12 919 1917 1829 3790 58 118 122 251 143 295 21
44 103 213 182 375 79 162 681 1405 1338 2762 657 1356 1196 2466 1197 2465 3
-4 72 -554 117 -942 283 -2398 463 -4875 517 -7120 13 -548 7 -2287 -10 -2675
-28 -634 -56 -1107 -90 -1500 -11 -126 -15 -207 -9 -211 5 -3 49 -9 96 -12 48
-3 353 -26 677 -51 709 -54 849 -65 852 -62 10 9 243 1308 352 1961 554 3327
907 6480 1011 9035 41 1026 41 2196 0 3020 -47 928 -141 1728 -286 2433 -25
122 -48 225 -50 229 -3 4 8 14 25 22 72 38 141 154 141 239 0 94 -297 1324
-469 1938 -589 2113 -1424 4319 -2401 6349 -83 173 -183 375 -222 449 l-70
134 16 106 c62 417 39 757 -74 1085 -73 211 -165 383 -301 563 -481 635 -1426
1106 -2649 1320 -178 31 -230 36 -395 39 -104 1 -202 0 -216 -4z m-2429 -4282
c11 -6 24 -27 29 -48 6 -20 110 -494 231 -1052 122 -558 241 -1107 266 -1220
50 -227 49 -250 -5 -250 -16 0 -33 6 -39 13 -11 13 -552 2479 -552 2516 0 11
10 27 22 35 27 19 24 19 48 6z m-19490 -7579 c242 -92 467 -422 531 -781 21
-115 16 -328 -9 -422 -42 -154 -115 -258 -216 -308 -62 -31 -70 -32 -158 -28
-80 3 -102 9 -160 37 -237 118 -437 431 -494 776 -19 120 -14 328 11 419 74
269 272 392 495 307z m-19636 -1110 c145 -207 394 -497 632 -735 843 -845
1871 -1479 3009 -1858 121 -40 222 -74 224 -76 3 -1 -14 -18 -37 -37 -115 -99
-133 -290 -37 -403 l36 -42 -2838 -3 c-2706 -2 -2841 -3 -2897 -20 -140 -43
-254 -126 -296 -215 -24 -51 -29 -138 -11 -186 22 -56 525 -770 584 -827 64
-64 176 -124 297 -161 l75 -23 1275 -5 1275 -5 122 -305 c67 -168 122 -311
122 -319 1 -9 -6 -11 -21 -8 -107 27 -1627 228 -2163 287 -55 6 -116 13 -135
15 -374 49 -1758 189 -2610 265 -250 22 -461 41 -469 43 -8 1 131 193 335 462
1263 1670 2292 2958 2983 3735 166 186 468 500 481 500 5 0 33 -35 64 -79z
m5356 -4595 c0 -1 -183 -466 -406 -1032 -223 -566 -458 -1163 -522 -1326
l-117 -298 -7 203 c-20 574 -76 868 -207 1092 -71 121 -157 181 -376 260 -285
103 -845 236 -1435 340 -85 15 -160 33 -166 39 -12 11 -284 698 -284 716 0 7
601 10 1760 10 968 0 1760 -2 1760 -4z m674 -218 c3 -123 11 -423 17 -668 6
-245 12 -472 14 -505 2 -33 6 -143 9 -245 4 -102 9 -219 11 -260 2 -41 7 -136
10 -210 6 -134 9 -211 20 -405 2 -55 7 -147 10 -205 3 -58 8 -136 10 -175 3
-38 7 -113 10 -165 44 -801 145 -2051 246 -3040 42 -414 126 -1158 135 -1200
3 -16 2 -21 -4 -15 -15 15 -2092 3565 -2092 3575 0 5 243 627 541 1382 681
1729 909 2307 920 2336 8 20 15 22 73 22 l64 0 6 -222z m2717 220 c0 -5 8 -75
45 -413 87 -809 206 -1691 345 -2560 56 -349 150 -897 204 -1195 30 -162 59
-322 65 -355 240 -1329 682 -3290 1065 -4725 58 -217 105 -398 105 -402 0 -4
-17 -10 -37 -14 -354 -60 -616 -168 -840 -346 -104 -83 -445 -376 -613 -528
-157 -142 -469 -421 -522 -466 -20 -17 -50 -61 -67 -98 -89 -185 -299 -340
-606 -446 -65 -22 -125 -40 -134 -40 -11 0 -74 116 -209 383 l-194 383 -59 23
c-73 28 -95 47 -102 87 l-6 32 63 -5 c110 -9 147 8 514 240 234 147 341 221
353 242 31 50 25 110 -19 185 -36 62 -37 67 -26 106 13 46 26 464 49 1624 23
1144 62 2622 80 3035 3 66 7 183 10 260 3 77 7 185 10 240 3 55 7 177 10 270
3 94 8 204 10 245 3 41 7 138 10 215 3 77 8 174 10 215 3 41 7 134 10 205 5
124 8 180 19 380 3 50 8 135 11 190 10 195 15 282 25 435 5 85 12 200 15 255
3 55 8 123 10 150 2 28 7 100 10 160 3 61 8 133 10 160 2 28 7 86 10 130 3 44
7 105 10 135 2 30 7 96 10 145 3 50 8 113 10 140 3 28 19 217 35 420 17 204
42 484 55 623 14 140 25 260 25 268 0 11 22 14 110 14 61 0 110 -1 111 -2z
m31739 -5 c1 -21 -1756 -4461 -1762 -4455 -7 7 -1758 4446 -1758 4457 0 8
3520 6 3520 -2z m676 -95 c-71 -222 -1879 -5734 -1885 -5745 -3 -7 -68 145
-144 337 l-137 348 1011 2569 c557 1412 1016 2574 1022 2581 6 8 37 12 87 12
l78 0 -32 -102z"/>
<path d="M46160 39864 c-165 -14 -293 -28 -410 -44 -133 -19 -138 -21 -285
-94 -82 -41 -201 -104 -264 -140 l-113 -65 -97 15 c-395 60 -824 2 -1166 -160
-519 -246 -893 -744 -1017 -1356 -29 -147 -32 -405 -5 -512 91 -363 349 -616
775 -758 115 -38 269 -76 278 -68 2 3 9 117 15 254 7 173 14 255 23 269 25 38
151 173 213 228 314 279 655 355 1021 225 223 -78 418 -211 651 -441 106 -105
282 -309 331 -385 l15 -23 57 25 57 25 -6 103 c-3 57 -1 127 4 155 9 47 7 62
-18 132 -60 170 -72 323 -34 432 45 131 211 219 385 207 249 -18 370 -262 370
-749 l0 -156 52 -89 c28 -49 66 -121 85 -161 l33 -72 0 -179 c0 -99 -5 -225
-10 -279 l-10 -100 521 -1019 c286 -560 543 -1063 571 -1117 40 -79 48 -100
38 -112 -21 -25 -211 -112 -327 -149 -296 -95 -763 -147 -1128 -126 -206 11
-198 8 -228 88 -14 37 -31 68 -40 70 -24 5 -169 -55 -214 -88 -33 -25 -47 -45
-69 -103 -15 -40 -108 -252 -206 -472 -461 -1028 -728 -1704 -923 -2335 -108
-350 -139 -535 -138 -830 1 -470 133 -914 386 -1299 261 -397 1090 -1313 2084
-2303 l338 -337 230 -25 c915 -101 1696 -101 2240 -1 187 35 1493 390 1547
421 16 10 -106 307 -226 551 -261 530 -713 1258 -1229 1978 -86 121 -178 249
-204 285 -57 81 -37 61 112 -110 530 -607 1179 -1519 1832 -2572 l22 -37 83
26 c331 101 1652 514 1655 517 2 2 -33 100 -78 217 -345 901 -817 1794 -1398
2639 l-120 175 57 13 c342 81 618 199 796 341 232 186 325 388 343 741 19 391
-121 699 -413 911 -86 63 -94 73 -94 120 0 54 43 86 145 108 230 49 498 166
655 285 204 154 349 356 423 591 42 136 60 264 60 445 0 379 -86 705 -258 970
-340 527 -1075 764 -2047 659 -54 -6 -96 -5 -111 0 -35 14 -57 49 -57 93 0 30
9 47 51 95 121 138 213 279 265 408 20 48 34 88 32 90 -2 2 -23 0 -48 -5 -89
-17 -448 -59 -625 -75 -608 -52 -1185 -45 -1865 21 -91 9 -166 18 -168 19 -5
5 106 372 134 445 53 135 179 282 305 357 30 17 326 141 659 275 l605 243 -55
8 c-149 23 -528 -8 -710 -58 -79 -21 -105 -19 -141 13 -31 28 -31 29 -30 120
7 408 -426 1110 -989 1605 -624 549 -1352 871 -2200 973 -127 15 -664 28 -780
18z"/>
<path d="M20362 39128 c-6 -7 -18 -33 -28 -58 -23 -61 -32 -70 -65 -70 -26 0
-59 22 -59 39 0 14 -47 30 -69 24 -12 -3 -31 -24 -43 -47 -100 -196 -301 -372
-596 -520 -128 -64 -228 -104 -452 -181 -835 -287 -1300 -614 -1494 -1053 -55
-126 -78 -242 -80 -404 -1 -188 -2 -189 -109 -164 -61 15 -81 16 -118 6 -71
-19 -135 -59 -194 -121 -100 -105 -139 -237 -117 -392 47 -322 290 -647 681
-910 42 -28 79 -55 83 -61 17 -24 6 -51 -42 -103 -160 -174 -54 -331 309 -457
276 -96 518 -127 699 -90 80 16 119 34 129 61 3 8 -5 74 -18 146 -22 122 -26
132 -52 146 -148 82 -335 245 -423 367 -59 83 -112 198 -124 270 -39 233 189
408 389 298 99 -53 222 -196 321 -371 44 -78 55 -92 74 -88 11 2 38 7 59 10
l38 6 -28 47 c-127 216 -218 413 -260 572 -50 185 -30 336 54 410 38 33 179
104 460 229 741 329 1115 532 1400 759 241 193 352 376 384 632 53 433 -203
894 -588 1058 -58 25 -105 28 -121 10z"/>
<path d="M35020 38620 c-1094 -38 -2490 -147 -4013 -316 -224 -24 -418 -49
-430 -53 -36 -14 -83 -58 -96 -88 -15 -39 -711 -2474 -711 -2490 0 -9 16 -13
54 -13 176 0 793 -149 1271 -307 l180 -60 -2 -43 c-5 -107 -113 -244 -216
-275 -58 -17 -142 -19 -206 -4 -24 5 -45 8 -48 6 -2 -3 57 -51 132 -108 153
-118 151 -113 97 -213 -59 -110 -169 -142 -314 -92 -38 12 -68 21 -68 18 0 -2
55 -65 123 -139 67 -74 123 -140 125 -147 2 -7 -26 -40 -62 -73 -115 -108
-221 -121 -368 -44 -43 23 -92 41 -108 41 -59 0 -114 -41 -280 -209 -295 -297
-454 -375 -761 -373 l-136 0 -206 -721 c-114 -397 -207 -737 -207 -755 0 -37
28 -98 57 -124 52 -47 23 -46 1183 -57 602 -6 1505 -13 2005 -17 883 -5 911
-5 945 13 42 23 123 129 299 388 612 904 1509 2521 2726 4915 413 810 555
1104 555 1144 -1 71 -55 143 -123 165 -88 28 -934 47 -1397 31z m360 -444 l0
-63 -262 -7 c-1490 -38 -2617 -104 -3343 -196 -300 -38 -481 -72 -550 -104
-66 -30 -151 -113 -183 -178 -13 -26 -102 -314 -198 -639 -96 -326 -176 -594
-178 -596 -2 -3 -32 3 -66 13 -44 12 -60 21 -56 31 3 7 85 282 182 611 113
384 187 618 207 656 46 87 133 168 230 216 64 31 111 45 217 64 535 97 1435
171 2695 221 509 21 874 32 1113 33 l192 2 0 -64z m-2035 -981 c199 -51 344
-210 375 -409 46 -295 -188 -566 -489 -566 -120 0 -209 29 -301 99 -107 80
-172 193 -193 338 -9 59 -8 85 6 150 24 111 60 178 136 254 127 127 300 176
466 134z"/>
<path d="M45576 14578 c-3 -7 -14 -71 -26 -143 -34 -201 -106 -565 -166 -840
-204 -923 -402 -1491 -578 -1653 -114 -105 -298 -156 -561 -156 -178 0 -316
18 -515 65 l-125 30 -180 -90 c-100 -50 -243 -131 -318 -181 -147 -97 -297
-233 -297 -269 0 -65 221 -140 545 -185 390 -53 921 -46 1295 19 185 31 440
108 516 154 40 25 134 195 382 691 495 991 756 1727 804 2264 l12 139 -42 38
c-50 44 -137 81 -248 105 -104 22 -492 32 -498 12z"/>
<path d="M31370 13040 c0 -6 7 -40 16 -76 19 -76 23 -71 -91 -128 -202 -101
-484 -105 -773 -11 -59 19 -113 39 -120 43 -7 5 -15 33 -18 63 -3 30 -8 65
-10 78 -5 22 -7 22 -20 9 -34 -34 -183 -1148 -169 -1257 29 -213 174 -384 371
-436 61 -16 382 -35 1284 -75 1408 -62 2551 -88 2652 -60 53 15 94 53 114 106
15 40 16 53 5 93 -14 56 -68 136 -117 175 -20 16 -716 349 -1548 741 -831 391
-1526 719 -1543 729 -20 10 -33 12 -33 6z"/>
<path d="M39390 12143 c-591 -249 -1602 -436 -2767 -514 -201 -13 -228 -9
-262 40 -47 67 -33 134 39 188 27 20 47 39 45 41 -6 6 -333 -169 -455 -243
-247 -149 -451 -307 -606 -466 -93 -96 -184 -214 -184 -238 0 -37 402 -81 745
-81 768 0 2103 145 3542 386 l161 27 36 76 c64 137 79 294 41 436 -31 118
-138 310 -206 371 l-24 21 -105 -44z"/>
<path d="M64923 11146 c-296 -320 -505 -618 -667 -956 -94 -197 -119 -278
-114 -367 9 -132 86 -246 206 -305 l47 -23 920 0 920 0 57 27 c74 34 146 107
184 183 27 55 29 68 28 165 0 82 -7 135 -33 245 -86 365 -204 657 -355 874
-51 75 -142 181 -155 181 -3 0 -13 -18 -22 -39 -35 -82 -108 -98 -244 -53
-200 67 -353 95 -493 90 -85 -3 -92 -1 -117 22 -15 14 -32 37 -38 51 -12 25
-13 24 -124 -95z"/>
</g>
</svg>
