<svg xmlns="http://www.w3.org/2000/svg" xmlns:xlink="http://www.w3.org/1999/xlink" width="500" zoomAndPan="magnify" viewBox="0 0 375 374.999991" height="500" preserveAspectRatio="xMidYMid meet" version="1.0"><defs><g/><clipPath id="fb09e725cb"><path d="M 134.675781 124 L 240.425781 124 L 240.425781 189.085938 L 134.675781 189.085938 Z M 134.675781 124 " clip-rule="nonzero"/></clipPath><clipPath id="03c663ef90"><path d="M 154 99.085938 L 199 99.085938 L 199 131 L 154 131 Z M 154 99.085938 " clip-rule="nonzero"/></clipPath></defs><rect x="-37.5" width="450" fill="#ffffff" y="-37.499999" height="449.999989" fill-opacity="1"/><rect x="-37.5" width="450" fill="#ffffff" y="-37.499999" height="449.999989" fill-opacity="1"/><rect x="-37.5" width="450" fill="#241b1a" y="-37.499999" height="449.999989" fill-opacity="1"/><path fill="#ffd964" d="M 185.015625 142.03125 L 194.988281 136.339844 L 204.792969 130.664062 L 214.753906 124.972656 L 214.753906 113.605469 L 204.792969 119.296875 L 194.988281 124.972656 L 185.015625 130.664062 L 175.210938 136.339844 Z M 185.015625 142.03125 " fill-opacity="1" fill-rule="evenodd"/><g clip-path="url(#fb09e725cb)"><path fill="#ffd964" d="M 145.160156 164.609375 L 167.78125 177.5625 L 177.585938 183.238281 L 187.546875 189.085938 L 197.363281 183.238281 L 207.324219 177.5625 L 240.390625 158.605469 L 240.390625 147.238281 L 207.324219 166.191406 L 197.363281 171.871094 L 187.546875 177.5625 L 177.585938 171.871094 L 167.78125 166.191406 L 145.160156 153.242188 L 145.160156 141.875 L 167.78125 154.8125 L 177.585938 160.503906 L 187.546875 166.191406 L 197.363281 160.503906 L 207.324219 154.8125 L 240.390625 135.714844 L 240.390625 124.34375 L 207.324219 143.457031 L 197.363281 149.132812 L 187.546875 154.8125 L 177.585938 149.132812 L 167.78125 143.457031 L 134.714844 124.34375 L 134.714844 158.605469 Z M 145.160156 164.609375 " fill-opacity="1" fill-rule="evenodd"/></g><g clip-path="url(#03c663ef90)"><path fill="#ffd964" d="M 164.453125 130.191406 L 174.253906 124.34375 L 184.230469 118.667969 L 198.464844 110.453125 L 198.464844 99.085938 L 184.230469 107.289062 L 174.253906 112.976562 L 164.453125 118.667969 L 154.492188 124.34375 Z M 164.453125 130.191406 " fill-opacity="1" fill-rule="evenodd"/></g><g fill="#fff4ea" fill-opacity="1"><g transform="translate(101.318574, 234.604057)"><g><path d="M 1.40625 0 L 1.40625 -31.71875 L 7.6875 -31.71875 L 7.6875 -19.015625 L 10.640625 -31.71875 L 17.015625 -31.71875 L 13.46875 -17.203125 L 17.765625 0 L 11.1875 0 L 7.71875 -15.359375 L 7.71875 0 Z M 1.40625 0 "/></g></g></g><g fill="#fff4ea" fill-opacity="1"><g transform="translate(128.785117, 234.604057)"><g><path d="M 1.109375 0 L 1.109375 -31.71875 L 7.234375 -31.71875 L 7.234375 0 Z M 1.109375 0 "/></g></g></g><g fill="#fff4ea" fill-opacity="1"><g transform="translate(147.207738, 234.604057)"><g><path d="M 1.40625 0 L 1.40625 -31.71875 L 7.9375 -31.71875 L 10.859375 -16.546875 L 10.859375 -31.71875 L 16.984375 -31.71875 L 16.984375 0 L 10.78125 0 L 7.609375 -15.875 L 7.609375 0 Z M 1.40625 0 "/></g></g></g><g fill="#fff4ea" fill-opacity="1"><g transform="translate(175.634053, 234.604057)"><g><path d="M 1.40625 0 L 1.40625 -31.71875 L 14.109375 -31.71875 L 14.109375 -25.59375 L 7.859375 -25.59375 L 7.859375 -19.421875 L 13.84375 -19.421875 L 13.84375 -13.4375 L 7.859375 -13.4375 L 7.859375 -6.171875 L 14.515625 -6.171875 L 14.515625 0 Z M 1.40625 0 "/></g></g></g><g fill="#fff4ea" fill-opacity="1"><g transform="translate(200.88576, 234.604057)"><g><path d="M 1.40625 -31.71875 L 11.15625 -31.71875 C 12.695312 -31.71875 13.894531 -31.363281 14.75 -30.65625 C 15.601562 -29.957031 16.175781 -28.972656 16.46875 -27.703125 C 16.757812 -26.441406 16.90625 -24.828125 16.90625 -22.859375 C 16.90625 -21.054688 16.671875 -19.648438 16.203125 -18.640625 C 15.734375 -17.628906 14.921875 -16.929688 13.765625 -16.546875 C 14.734375 -16.347656 15.429688 -15.863281 15.859375 -15.09375 C 16.285156 -14.332031 16.5 -13.300781 16.5 -12 L 16.4375 0 L 10.234375 0 L 10.234375 -12.40625 C 10.234375 -13.289062 10.054688 -13.851562 9.703125 -14.09375 C 9.359375 -14.34375 8.734375 -14.46875 7.828125 -14.46875 L 7.828125 0 L 1.40625 0 Z M 9.375 -19.96875 C 10.257812 -19.96875 10.703125 -20.929688 10.703125 -22.859375 C 10.703125 -23.691406 10.664062 -24.316406 10.59375 -24.734375 C 10.519531 -25.148438 10.382812 -25.4375 10.1875 -25.59375 C 9.988281 -25.757812 9.707031 -25.84375 9.34375 -25.84375 L 7.859375 -25.84375 L 7.859375 -19.96875 Z M 9.375 -19.96875 "/></g></g></g><g fill="#fff4ea" fill-opacity="1"><g transform="translate(228.53687, 234.604057)"><g><path d="M 8.453125 0.296875 C 7.003906 0.296875 5.6875 0.015625 4.5 -0.546875 C 3.320312 -1.117188 2.394531 -1.953125 1.71875 -3.046875 C 1.039062 -4.140625 0.703125 -5.460938 0.703125 -7.015625 L 0.703125 -14.953125 L 6.9375 -14.953125 L 6.9375 -7.390625 C 6.9375 -6.816406 7.050781 -6.363281 7.28125 -6.03125 C 7.519531 -5.695312 7.882812 -5.53125 8.375 -5.53125 C 8.84375 -5.53125 9.191406 -5.6875 9.421875 -6 C 9.660156 -6.3125 9.78125 -6.75 9.78125 -7.3125 L 9.78125 -31.71875 L 16.171875 -31.71875 L 16.171875 -7.9375 C 16.171875 -6.289062 15.84375 -4.84375 15.1875 -3.59375 C 14.539062 -2.351562 13.628906 -1.394531 12.453125 -0.71875 C 11.285156 -0.0390625 9.953125 0.296875 8.453125 0.296875 Z M 8.453125 0.296875 "/></g></g></g><g fill="#fff4ea" fill-opacity="1"><g transform="translate(255.781932, 234.604057)"><g><path d="M 0.546875 0 L 3.625 -31.71875 L 14.359375 -31.71875 L 17.390625 0 L 11.375 0 L 10.921875 -5.125 L 7.09375 -5.125 L 6.71875 0 Z M 7.5625 -10.1875 L 10.453125 -10.1875 L 9.046875 -26.328125 L 8.75 -26.328125 Z M 7.5625 -10.1875 "/></g></g></g></svg>