<svg width="92" height="77" viewBox="0 0 92 77" fill="none" xmlns="http://www.w3.org/2000/svg">
<path d="M67.6362 32.6609L67.6362 32.6609L67.6427 32.6553C68.7887 31.6622 69.4439 30.3113 69.4291 28.8871C69.4143 27.4631 68.7315 26.1231 67.5661 25.1478C66.4033 24.1745 64.8461 23.6336 63.2329 23.6218C61.6197 23.6101 60.0524 24.1283 58.8704 25.0837L58.8704 25.0837L58.8638 25.0891L40.25 40.6681L33.1362 34.7141L33.1362 34.7141L33.1296 34.7087C31.9476 33.7533 30.3803 33.2351 28.7671 33.2468C27.1539 33.2586 25.5967 33.7995 24.4339 34.7728C23.2685 35.7481 22.5857 37.0882 22.5709 38.5121C22.5561 39.9363 23.2113 41.2872 24.3573 42.2803L24.3573 42.2804L24.3638 42.2859L35.8638 51.9109L35.8639 51.9109C37.04 52.895 38.6186 53.4365 40.25 53.4365C41.8814 53.4365 43.46 52.895 44.6361 51.9109L44.6362 51.9109L67.6362 32.6609ZM78.206 65.3402C69.6772 72.4785 58.0933 76.5 46 76.5C33.9067 76.5 22.3228 72.4785 13.794 65.3402C5.26777 58.2041 0.5 48.5466 0.5 38.5C0.5 28.4534 5.26777 18.7959 13.794 11.6598C22.3228 4.52154 33.9067 0.5 46 0.5C58.0933 0.5 69.6772 4.52154 78.206 11.6598C86.7322 18.7959 91.5 28.4534 91.5 38.5C91.5 48.5466 86.7322 58.2041 78.206 65.3402Z" fill="white" stroke="white"/>
</svg>
