<svg width="104" height="89" viewBox="0 0 104 89" fill="none" xmlns="http://www.w3.org/2000/svg">
<path d="M43.9206 29.0624L43.9206 29.0624L43.914 29.0569C42.5908 27.9632 40.8324 27.3676 39.0197 27.3811C37.2069 27.3946 35.4603 28.0162 34.1586 29.1302C32.8546 30.2461 32.0966 31.7735 32.0801 33.3899C32.0637 35.0066 32.7908 36.5459 34.0729 37.6819L34.0729 37.682L34.0794 37.6876L42.04 44.5L34.0826 51.3097C33.4132 51.8637 32.874 52.5304 32.501 53.2736C32.1271 54.0183 31.9287 54.823 31.9204 55.6399C31.9121 56.4569 32.0942 57.2647 32.4531 58.0153C32.8118 58.7656 33.3388 59.4417 33.9988 60.0065C34.6588 60.5713 35.4394 61.0145 36.2936 61.3135C37.1478 61.6126 38.0609 61.7625 38.9803 61.7556C39.8997 61.7488 40.8099 61.5854 41.6581 61.2735C42.5049 60.9623 43.2756 60.5083 43.9237 59.9349L52 53.0235L60.0794 59.9376L60.0794 59.9376L60.086 59.9431C61.4092 61.0368 63.1676 61.6324 64.9803 61.6189C66.7931 61.6054 68.5397 60.9838 69.8414 59.8698C71.1454 58.7539 71.9034 57.2265 71.9199 55.6101C71.9363 53.9934 71.2092 52.4541 69.9271 51.3181L69.9271 51.318L69.9206 51.3124L61.96 44.5L69.9206 37.6876L69.9206 37.6876L69.9271 37.6819C71.2092 36.5459 71.9363 35.0066 71.9199 33.3899C71.9034 31.7735 71.1454 30.2461 69.8414 29.1302C68.5397 28.0162 66.7931 27.3946 64.9803 27.3811C63.1676 27.3676 61.4092 27.9632 60.086 29.0569L60.0859 29.0569L60.0794 29.0624L52 35.9765L43.9206 29.0624ZM88.4445 75.5864C78.7902 83.8482 65.6816 88.5 52 88.5C38.3184 88.5 25.2098 83.8482 15.5555 75.5864C5.90367 67.3266 0.5 56.1422 0.5 44.5C0.5 32.8578 5.90367 21.6734 15.5555 13.4136C25.2098 5.1518 38.3184 0.5 52 0.5C65.6816 0.5 78.7902 5.1518 88.4445 13.4136C98.0963 21.6734 103.5 32.8578 103.5 44.5C103.5 56.1422 98.0963 67.3266 88.4445 75.5864Z" fill="white" stroke="white"/>
</svg>
