<svg width="92" height="75" viewBox="0 0 92 75" fill="none" xmlns="http://www.w3.org/2000/svg">
<path d="M45.7028 21.5612V47V21.5612ZM45.7028 55.7497H45.7527H45.7028ZM11.157 74H80.2487C87.9277 74 92.7246 66.3942 88.8851 60.3123L54.3393 5.56143C50.4997 -0.52048 40.9059 -0.52048 37.0664 5.56143L2.52052 60.3123C-1.31901 66.3942 3.47791 74 11.157 74Z" fill="white"/>
<path d="M45.7028 21.5612V47M45.7028 55.7497H45.7527M11.157 74H80.2487C87.9277 74 92.7246 66.3942 88.8851 60.3123L54.3393 5.56143C50.4997 -0.52048 40.9059 -0.52048 37.0664 5.56143L2.52052 60.3123C-1.31901 66.3942 3.47791 74 11.157 74Z" stroke="black" stroke-width="2" stroke-linecap="round" stroke-linejoin="round"/>
</svg>
